<svg xmlns="http://www.w3.org/2000/svg" xmlns:xlink="http://www.w3.org/1999/xlink" version="1.1" id="Your_Icon" x="0px" y="0px" width="100px" height="100px" viewBox="0 0 100 100" enable-background="new 0 0 100 100" xml:space="preserve">
<g>
	<g>
		<g>
			<g>
				<path d="M70.891,66.262c5.719-5.666,9.272-13.518,9.272-22.189c0-17.231-14.029-31.252-31.266-31.252      c-17.233,0-31.254,14.021-31.254,31.252c0,8.671,3.547,16.518,9.257,22.184l-9.216,9.223      C9.346,67.138,4.752,56.047,4.752,44.266c0-11.792,4.589-22.883,12.93-31.219c17.213-17.211,45.218-17.211,62.438,0      c8.337,8.336,12.923,19.427,12.929,31.219c0,11.781-4.592,22.872-12.929,31.213L70.891,66.262z"/>
			</g>
			<path d="M32.551,73.809c0,7.067-5.746,12.817-12.82,12.817v13.206c14.352,0,26.03-11.673,26.03-26.023H32.551z"/>
			<path d="M52.24,73.809c0,14.351,11.661,26.023,26.003,26.023V86.626c-7.058,0-12.806-5.75-12.806-12.817H52.24z"/>
		</g>
	</g>
	<g>
		<g>
			<path fill-rule="evenodd" clip-rule="evenodd" d="M48.906,20.573c1.975,5.479,3.479,11.439,5.473,16.912     c5.805,0,12.222-0.007,17.63,0c-4.53,3.686-9.578,6.86-14.176,10.476c1.784,5.604,3.724,11.051,5.36,16.795     c-5.012-3.204-9.533-6.898-14.407-10.242c-4.859,3.277-9.692,7.223-14.415,10.242c1.501-5.367,3.492-11.275,5.356-16.673     c-4.551-3.782-9.833-6.834-14.406-10.597c4.456-0.093,13.003,0.155,17.626-0.124C45.118,31.947,46.722,25.971,48.906,20.573z"/>
		</g>
	</g>
</g>
</svg>